<svg id="Layer_1" data-name="Layer 1" xmlns="http://www.w3.org/2000/svg" viewBox="0 0 269.71 280.92"><defs><style>.cls-1{fill:#cd5d40;}</style></defs><title>frok</title><path class="cls-1" d="M2.95,273.63c-0.78-2.09-1.68-4.15-2.32-6.29-1.34-4.49-.62-8.36,3-11.8q49.48-47.33,98.83-94.8,25.67-24.62,51.46-49.12c1.76-1.67,4.44-2.34,6.34-3.91a50.86,50.86,0,0,0,8-7.73,31.41,31.41,0,0,0,6.06-15.55c0.55-4.16,2.67-8.11,4.25-12.61-1.14-.62-2.7-1.57-4.36-2.36-12.77-6.05-25.24-12.63-36.24-21.63-5-4.06-9.74-8.36-12.83-14.11-1.1-2-2.32-4.28-2.52-6.51-0.29-3.37-1.89-5.57-4-8a138.08,138.08,0,0,1-9.21-12.11,4.31,4.31,0,0,1,.75-6.24c2.08-1.53,4.64-1,6.39,1.35,1.44,2,2.67,4.11,4.14,6.06s3,3.59,4.75,5.65c1.24-1.24,2.31-2.37,3.44-3.43,8-7.44,17.06-11.08,27.87-7.38,6.27,2.14,10.44,6.6,11.7,13.33,1.05,5.64-.53,10.53-4.94,14.18-5.46,4.52-11.95,5.23-18.66,4-3.44-.64-6.77-1.86-10.67-3a77.08,77.08,0,0,0,16.56,14.81c13.51,9.2,28.5,15.63,43,22.93,13.36,6.72,26.8,13.26,40.2,19.88a15.52,15.52,0,0,1,1.51.76c2.41,1.54,3.13,3.82,1.92,6a4.41,4.41,0,0,1-5.89,1.73,89.88,89.88,0,0,1-8.85-4.36c-2-1.16-3.06-.57-4.59.82a175.51,175.51,0,0,1-14.54,12.39,20.1,20.1,0,0,1-9.11,3.35,36.32,36.32,0,0,0-19.05,8.44,13.07,13.07,0,0,0-2.31,2.76c-1.52,2.21-2.66,4.78-4.48,6.69q-34.36,35.91-68.88,71.66Q63.34,237.31,27.2,275.22c-5.75,6.06-8.38,7.53-18.48,3.2-0.6-.26-1.19-0.54-1.78-0.8ZM131.88,20.45c4.66,1.91,8.74,4.06,13.08,5.2a22.32,22.32,0,0,0,9.4,0c4.84-.89,6.73-4.83,4.88-9.38-1.66-4.09-5.27-5.46-9.24-5.74C142.41,10,137.06,14,131.88,20.45Z"/><path class="cls-1" d="M263.34,34c0.17,3-1.28,5.21-3.43,7.26-5,4.8-9.86,9.79-14.78,14.71,4,3.4,4.35,3.39,7.71,0,3-3,5.95-6,9-9,2.48-2.37,4.75-2.45,6.66-.42,1.77,1.88,1.62,4.22-.58,6.52-3,3.13-6,6.18-9.07,9.28a2.12,2.12,0,0,0-.19.73c0.67,0.39,1.4.78,2.1,1.21,2.52,1.57,3.34,3.76,2.22,5.92s-3.66,3-6.28,1.71c-9.45-4.63-18.87-9.33-28.31-14L191,39.56c-3.29-1.62-4.33-3.85-3-6.46,1.24-2.4,3.68-2.91,6.83-1.41,2.46,1.18,5,2.28,7.32,3.63,1.77,1,2.94.74,4.36-.71,7.18-7.32,14.47-14.54,21.73-21.78a16.58,16.58,0,0,1,2.54-2.23,4,4,0,0,1,5.4.47,4.09,4.09,0,0,1,.45,5.44,14.92,14.92,0,0,1-2.07,2.3c-7.11,7.12-14.22,14.23-21.76,21.77a72.14,72.14,0,0,0,7,3.27c0.61,0.22,1.83-.67,2.5-1.33,6.36-6.28,12.66-12.62,19-18.93,0.86-.86,1.76-2.07,2.8-2.26,1.48-.27,3.56-0.27,4.54.59s1.39,2.94,1.27,4.42c-0.09,1.1-1.33,2.21-2.24,3.13C242.23,35,236.75,40.4,231.3,45.86l-2.55,2.55a57.32,57.32,0,0,0,6.56,3.17c0.72,0.25,2.08-.48,2.76-1.14,5.39-5.26,10.75-10.54,16-16,2-2,4-3.29,6.91-2.86Z"/><path class="cls-1" d="M171.89,55.4c-1.77-1.88-2-3.76-.73-5.62a4.18,4.18,0,0,1,5.72-1.45c5.76,2.77,11.48,5.62,17.21,8.45l39.4,19.55c3.28,1.63,6.59,3.21,9.86,4.86,2.8,1.41,3.76,3.88,2.51,6.23s-3.83,2.9-6.61,1.52L199.34,69.16q-12.89-6.38-25.79-12.73A17.82,17.82,0,0,1,171.89,55.4Z"/><path class="cls-1" d="M253.33,80.26a4.64,4.64,0,0,1-5.24.25c-12.2-6.09-24.43-12.1-36.65-18.12L182.84,48.31c-0.51-.25-1-0.49-1.5-0.79-2.22-1.37-3-3.66-2-5.78a4.32,4.32,0,0,1,6-1.9c5.44,2.58,10.83,5.24,16.22,7.9q25,12.39,50,24.81C255.15,74.32,256,77.71,253.33,80.26Z"/></svg>